<svg xmlns="http://www.w3.org/2000/svg" viewBox="0 0 489.35 290.58"><g id="Capa_2" data-name="Capa 2"><g id="Capa_1-2" data-name="Capa 1"><path d="M479.67,121.22c-32-35-68.21-64.81-110-87.45C333.28,14.07,294.8,1.34,253,.11a235.2,235.2,0,0,0-84.86,12.65C105.44,34.53,54.21,73.18,9.93,121.67c-13.9,15.21-12.89,32.55,1,48a340,340,0,0,0,25.94,26c31.72,28.3,65.91,53,104.54,71.12C184.52,287,229.67,294.82,277,288.38c37.43-5.11,71.65-19.34,103.9-38.57a434.87,434.87,0,0,0,76.95-58.48c12.25-11.63,25.64-22.61,31.55-39.43V138.53A43.36,43.36,0,0,0,479.67,121.22Zm-24,28.68c-18.67,21.53-40.56,39.43-63.55,56-26.17,18.9-54,34.64-85.07,44.29-20.33,6.32-41.06,9.88-61.2,9.41-33.32.47-63.5-7.58-92.38-21-42-19.56-78.45-46.93-110.88-79.81-3.12-3.17-5.8-6.77-9-9.91-2.75-2.75-2.41-4.93-.06-7.77,11-13.31,23.71-24.83,36.76-36C101.19,78.74,135.42,58,173.47,43.65a200.39,200.39,0,0,1,98-11.19c45.16,5.89,84.4,26,121.22,51.55a369.18,369.18,0,0,1,62.7,55.56C459.82,144.47,459.89,145,455.67,149.9Z"/><path d="M245.36,51.38c-52.56,0-93.71,41.3-94.3,93.62-.55,49,39.4,93.67,94.2,93.74,54.1.07,93.85-44.88,93.58-93.4C338.56,93.21,297.25,51.39,245.36,51.38Zm0,156.92c-31.33.66-63.76-26-63.76-63.15,0-34.78,28.58-63.39,63.61-63.42s62.69,28.13,62.73,63.34C308,180.76,280.78,207.55,245.36,208.3Z"/></g></g></svg>