<svg xmlns="http://www.w3.org/2000/svg" viewBox="0 0 489.35 290.58"><g id="Capa_2" data-name="Capa 2"><g id="Capa_1-2" data-name="Capa 1"><path d="M479.67,121.22C452,90.93,421.24,64.6,386.4,43.4L364.05,65.75c9.73,5.64,19.24,11.78,28.6,18.26a369.18,369.18,0,0,1,62.7,55.56c4.47,4.9,4.54,5.46.32,10.33-18.67,21.53-40.56,39.43-63.55,56-26.17,18.9-54,34.64-85.07,44.29-20.33,6.32-41.06,9.88-61.2,9.41a197.84,197.84,0,0,1-65.41-10.28l-23.91,23.91C195,288.6,235.16,294.07,277,288.38c37.43-5.11,71.65-19.34,103.9-38.57a434.87,434.87,0,0,0,76.95-58.48c12.25-11.63,25.64-22.61,31.55-39.43V138.53A43.36,43.36,0,0,0,479.67,121.22Zm-446,27.68c-2.75-2.75-2.41-4.93-.06-7.77,11-13.31,23.71-24.83,36.76-36C101.19,78.74,135.42,58,173.47,43.65a200.39,200.39,0,0,1,98-11.19,215.8,215.8,0,0,1,37.75,8.47l24.08-24.08C307.77,7,281.14.94,253,.11a235.2,235.2,0,0,0-84.86,12.65C105.44,34.53,54.21,73.18,9.93,121.67c-13.9,15.21-12.89,32.55,1,48a340,340,0,0,0,25.94,26c21,18.76,43.15,35.94,66.94,50.68l22.07-22.07c-30.66-17.78-58.18-39.94-83.3-65.41C39.47,155.64,36.79,152,33.64,148.9Z"/><path d="M328.12,101.68,304.78,125a64.9,64.9,0,0,1,3.16,20c.05,35.69-27.16,62.48-62.58,63.23a58.29,58.29,0,0,1-20.5-3.36l-23.28,23.28a94.71,94.71,0,0,0,43.68,10.52c54.1.07,93.85-44.88,93.58-93.4A95.31,95.31,0,0,0,328.12,101.68Zm-82.91-20a62.83,62.83,0,0,1,20,3.2l23.14-23.14a92.9,92.9,0,0,0-43-10.41c-52.56,0-93.71,41.3-94.3,93.62a91.34,91.34,0,0,0,10.58,43.47l23.28-23.28a61.39,61.39,0,0,1-3.32-20C181.59,110.37,210.18,81.76,245.21,81.73Z"/><path d="M373.9,36.1,142.69,267.31c-.42-.18-.85-.38-1.27-.58q-12.91-6.06-25.18-13.06l22.4-22.4,52.75-52.75,87.23-87.23,21.9-21.9L323.8,46.11l23.43-23.43q11.36,5.07,22.43,11.09C371.08,34.54,372.5,35.32,373.9,36.1Z"/></g></g></svg>