<svg xmlns="http://www.w3.org/2000/svg" viewBox="0 0 320.51 383.55"><g id="Capa_2" data-name="Capa 2"><g id="Capa_1-2" data-name="Capa 1"><path d="M318,278.53c-2.83-18.58-7.23-36.66-16.36-53.33C290.07,204.07,273.21,190.26,249,186c-10.25-1.81-19.74-1.21-28.39,5.39a160.27,160.27,0,0,1-13.48,8.76c-14.41,8.86-29.92,14.17-47,14.09-17.86-.08-34-5.77-48.85-15.42q-8.31-5.4-16.76-10.6A18.64,18.64,0,0,0,84.71,185c-19.5.12-36.76,6.1-50.82,20-10.49,10.37-17.5,23-22.38,36.76-9.65,27.18-12.88,55.41-11,84,1.57,23.83,13.78,41.45,35.67,51.87,6.48,3.08,13.46,4.42,20.39,5.94H263.91c.84-.2,1.67-.45,2.52-.6,32.33-5.61,52.48-28.27,53.87-60.84A226.22,226.22,0,0,0,318,278.53Zm-20.72,41.12c-.55,17.22-7.55,30.55-24.21,37.47-7.29,3-15,3.64-22.75,3.66-29.94.11-59.88.05-89.82.05s-59.63.06-89.44-.05c-7.1,0-14.19-.49-21-2.8-15.48-5.22-25.36-17.58-26.19-33.88-1.37-26.89,1.31-53.3,11.24-78.57,4-10.3,9.72-19.7,18.42-26.88,7.25-6,15.76-8.92,25-10a12.29,12.29,0,0,1,8.77,2.3c13.25,8.94,26.77,17.23,42.31,22,31.69,9.64,61.08,4.1,89-12.4,4.93-2.92,9.76-6,14.43-9.38,3.43-2.44,7-2.82,11-2.25,17.26,2.44,28.91,12.34,37.06,27.23,8.05,14.7,11.69,30.67,14,47A208.86,208.86,0,0,1,297.27,319.65Z"/><path d="M157.7,185.43a93,93,0,0,0,93-92.64C251.13,40.64,206.4-1.43,158.07,0,107.83-1.42,65.28,42.36,65,92S106.32,185.69,157.7,185.43ZM158,23c40.58.06,70.77,34.77,69.12,70,1.31,36.48-31.72,69.34-69.6,69.17-34.39-.14-69.37-28.79-69.23-69.82A69.75,69.75,0,0,1,158,23Z"/></g></g></svg>